<svg width="931" height="818" viewBox="0 0 931 818" fill="none" xmlns="http://www.w3.org/2000/svg">
<rect width="931" height="818" fill="#1E1E1E"/>
<rect width="931" height="818" fill="#101720"/>
<path d="M44 647V639L491 535.5V544L44 647Z" fill="#FCBF49" stroke="#FCBF49"/>
<path d="M44 491.5V483.5L275.5 430V437L44 491.5Z" fill="#FCBF49" stroke="#FCBF49"/>
<path d="M44.5 753.5V746L504 640.5V647L44.5 753.5Z" fill="#FCBF49"/>
<path d="M641.5 605L641 610L595 620.5L599.5 614.5L641.5 605Z" fill="#FCBF49"/>
<path d="M585.5 633L591.5 625L640.5 613.5L639.5 620.5L585.5 633Z" fill="#FCBF49"/>
<path d="M44.5 753.5V746L504 640.5V647L44.5 753.5Z" stroke="#FCBF49"/>
<path d="M641.5 605L641 610L595 620.5L599.5 614.5L641.5 605Z" stroke="#FCBF49"/>
<path d="M585.5 633L591.5 625L640.5 613.5L639.5 620.5L585.5 633Z" stroke="#FCBF49"/>
<path d="M694.5 610V602L888 558V565.5L694.5 610Z" fill="#FCBF49" stroke="#FCBF49"/>
<path d="M44 480.5V472L888 274V282.5L44 480.5Z" fill="#FCBF49" stroke="#FCBF49"/>
<path d="M694.5 598.5V591.5L887.5 547V554L694.5 598.5Z" fill="#FCBF49" stroke="#FCBF49"/>
<path d="M720 582V575L887 536.5V543.5L720 582Z" fill="#FCBF49" stroke="#FCBF49"/>
<path d="M45.5 731V724.5L493 621L497.5 627.5L45.5 731Z" fill="#FCBF49" stroke="#FCBF49"/>
<path d="M812 255.524V236.512L858.895 167H865.263V227.006L878 223.441V239.482L865.263 243.047V263.247L848.474 268V246.612L812 255.524Z" fill="#FCBF49" stroke="#FCBF49"/>
<path d="M128 429V429.5V430" stroke="black"/>
<path d="M128 429H129V430H128" stroke="black" stroke-opacity="0.91"/>
<path d="M540 602.5V606.5" stroke="black" stroke-opacity="0.91"/>
<path d="M528.5 453.5H513.5V526H528V557H552V571H580.5V597.5H602.5V604.5H633V596.5H691V581.5H717.5V565H742.5V520H707V506H673V494.5H640.5V478.5H673V462H705V446H742.5V408H717.5V391H691.5V379H662.5V363.5H633.5V355.5H604V363.5H581V383H553.5V408.5H528.5V453.5Z" fill="#FCBF49" stroke="#FCBF49" stroke-opacity="0.91" stroke-width="3"/>
<path d="M302 297.5L277.5 303.5V393.5L356.5 374.5V284.5L332.5 290.5V357L302 364V297.5Z" fill="#FCBF49" stroke="#FCBF49"/>
<path d="M364.5 372V283L389 277L414.5 299.5L439.5 265.5L464 260L465 350L440.5 355.5V306L414.5 338.5L389 318V367L364.5 372Z" fill="#FCBF49" stroke="#FCBF49"/>
<path d="M473 348V259L497.5 253L523 275.5L548 241.5L572.5 236L573.5 326L549 331.5V282L523 314.5L497.5 294V343L473 348Z" fill="#FCBF49" stroke="#FCBF49"/>
<path d="M619 225L595.5 230.5V319.5L619 313.5V225Z" fill="#FCBF49" stroke="#FCBF49"/>
<path d="M627 244.5V222L709.5 202V225.5L681 232V298.5L657 304.5V237L627 244.5Z" fill="#FCBF49" stroke="#FCBF49"/>
<path d="M70.5 419V374.5L127.5 362L128 337.5L45.5 357V448.5L127.5 429.5V405L70.5 419Z" fill="#FCBF49" stroke="#FCBF49"/>
<path d="M127.5 371.5L78.5 382V403.5L127.5 392.5V371.5Z" fill="#FCBF49" stroke="#FCBF49"/>
<path d="M135 391.5V376L179 365V381L135 391.5Z" fill="#FCBF49" stroke="#FCBF49"/>
<path d="M186.5 380V324.5L270 304.5V328.5L210.5 342.5V350L270 336.5V395L186.5 414.5V390.5L244 377V366.5L186.5 380Z" fill="#FCBF49" stroke="#FCBF49"/>
<path d="M779.86 200.08C765.134 200.08 763.257 213.988 764.159 220.941L750.083 223.838C753.981 191.852 774.446 184.628 784.191 185.014C827.937 190.114 792.674 241.995 769.573 267.298L804.224 258.027V272.513L749 287V274.831L782.026 224.418C786.538 216.112 794.587 200.08 779.86 200.08Z" fill="#FCBF49" stroke="#FCBF49"/>
<path d="M45 720.5V714.5L486.5 612L490.5 617.5L45 720.5Z" fill="#FCBF49" stroke="#FCBF49"/>
<path d="M745 566V558L887 526V533L745 566Z" fill="#FCBF49" stroke="#FCBF49"/>
<path d="M45 742V735.5L499.5 631L503 636.5L45 742Z" fill="#FCBF49" stroke="#FCBF49"/>
<path d="M46.948 625.608L44.523 578.487L71.784 572.508L72.0561 577.567L50.3006 582.339L51.0952 598.266L70.8083 593.942L71.0804 599.001L51.3673 603.325L52.4534 624.4L46.948 625.608ZM94.6551 615.887C91.5175 616.576 88.7267 616.404 86.2824 615.374C83.8382 614.343 81.8841 612.577 80.4201 610.075C78.9708 607.57 78.142 604.463 77.9336 600.755C77.7299 597.139 78.1801 593.853 79.2844 590.896C80.4002 587.921 82.0528 585.449 84.2423 583.479C86.4433 581.492 89.0534 580.167 92.0726 579.505C95.2101 578.817 97.9952 578.997 100.428 580.045C102.872 581.076 104.828 582.85 106.295 585.366C107.759 587.868 108.599 590.988 108.814 594.726C109.011 598.313 108.542 601.587 107.409 604.551C106.286 607.496 104.632 609.961 102.446 611.945C100.271 613.911 97.6742 615.225 94.6551 615.887ZM93.7115 611.162C96.1091 610.636 98.0537 609.565 99.5454 607.951C101.052 606.333 102.132 604.397 102.786 602.144C103.454 599.888 103.724 597.549 103.596 595.126C103.464 592.828 102.997 590.767 102.193 588.942C101.386 587.102 100.226 585.736 98.7113 584.843C97.1937 583.935 95.2952 583.731 93.0161 584.231C90.6186 584.757 88.6608 585.838 87.1427 587.474C85.6394 589.106 84.5626 591.056 83.9121 593.324C83.2617 595.592 83.008 597.936 83.1509 600.355C83.2827 602.653 83.7429 604.716 84.5317 606.544C85.332 608.354 86.4894 609.706 88.0038 610.599C89.5298 611.474 91.4324 611.662 93.7115 611.162ZM138.465 590.921L137.418 570.024L142.657 568.874L144.454 604.219L139.215 605.369L138.925 599.382L138.57 599.46C137.884 601.426 136.72 603.225 135.077 604.857C133.431 606.474 131.32 607.566 128.745 608.13C126.614 608.598 124.691 608.531 122.977 607.93C121.275 607.311 119.897 606.124 118.845 604.369C117.805 602.596 117.204 600.207 117.041 597.203L115.929 574.737L121.168 573.588L122.291 595.679C122.437 598.253 123.249 600.153 124.728 601.38C126.207 602.607 128.034 602.981 130.21 602.504C131.512 602.218 132.816 601.584 134.12 600.599C135.439 599.612 136.517 598.305 137.355 596.679C138.207 595.049 138.578 593.13 138.465 590.921ZM154.049 602.115L152.253 566.77L157.314 565.659L157.556 571.004L157.911 570.926C158.429 569.045 159.483 567.379 161.073 565.928C162.663 564.478 164.479 563.529 166.521 563.081C166.921 562.994 167.403 562.896 167.969 562.787C168.531 562.664 168.973 562.59 169.293 562.566L169.574 568.089C169.387 568.084 168.973 568.105 168.332 568.152C167.687 568.185 167.01 568.279 166.3 568.435C164.642 568.799 163.186 569.482 161.933 570.486C160.676 571.476 159.708 572.681 159.027 574.102C158.342 575.509 158.036 577.011 158.107 578.608L159.288 600.965L154.049 602.115ZM192.6 557.919L192.864 562.515L175.193 566.391L174.93 561.795L192.6 557.919ZM179.62 552.204L184.859 551.055L186.571 584.743C186.659 586.275 186.94 587.377 187.413 588.049C187.897 588.702 188.493 589.084 189.199 589.192C189.917 589.283 190.661 589.244 191.43 589.075C192.008 588.949 192.475 588.815 192.832 588.675C193.186 588.52 193.469 588.396 193.681 588.302L195.068 592.931C194.698 593.152 194.187 593.403 193.535 593.686C192.902 593.98 192.097 594.234 191.12 594.448C189.64 594.773 188.179 594.76 186.737 594.409C185.295 594.059 184.083 593.308 183.102 592.159C182.121 591.009 181.576 589.407 181.466 587.352L179.62 552.204ZM207.124 568.973L208.249 590.226L203.01 591.375L200.585 544.255L205.824 543.106L206.734 560.403L207.178 560.306C207.854 558.296 208.966 556.579 210.515 555.153C212.078 553.724 214.214 552.713 216.922 552.119C219.231 551.612 221.28 551.652 223.068 552.237C224.867 552.804 226.302 553.97 227.372 555.737C228.454 557.485 229.079 559.876 229.248 562.91L230.36 585.376L225.121 586.525L223.998 564.434C223.848 561.628 223.026 559.614 221.532 558.39C220.05 557.149 218.088 556.796 215.646 557.332C213.929 557.708 212.41 558.421 211.09 559.471C209.783 560.518 208.772 561.849 208.056 563.464C207.355 565.076 207.044 566.912 207.124 568.973ZM258.237 579.261L255.812 532.141L283.251 526.122L283.523 531.181L261.59 535.992L262.384 551.919L282.897 547.42L283.169 552.479L262.656 556.978L263.47 572.994L285.759 568.105L286.031 573.164L258.237 579.261ZM307.875 569.117C305.019 569.744 302.464 569.552 300.211 568.541C297.954 567.516 296.137 565.774 294.76 563.315C293.394 560.838 292.611 557.729 292.411 553.988C292.232 550.273 292.683 546.917 293.763 543.919C294.857 540.918 296.46 538.434 298.573 536.466C300.685 534.498 303.177 533.199 306.048 532.569C308.268 532.082 310.043 532.08 311.375 532.564C312.718 533.029 313.758 533.67 314.495 534.485C315.23 535.286 315.802 535.951 316.213 536.482L316.657 536.384L315.773 518.988L321.012 517.839L323.437 564.959L318.375 566.069L318.114 560.635L317.493 560.772C317.141 561.5 316.632 562.434 315.966 563.573C315.298 564.697 314.327 565.786 313.054 566.841C311.792 567.878 310.066 568.637 307.875 569.117ZM308.131 564.128C310.232 563.667 311.992 562.707 313.409 561.249C314.838 559.772 315.893 557.935 316.575 555.738C317.253 553.526 317.524 551.086 317.388 548.416C317.259 545.777 316.756 543.552 315.878 541.744C314.997 539.921 313.789 538.619 312.253 537.839C310.714 537.044 308.871 536.882 306.725 537.353C304.52 537.837 302.728 538.827 301.35 540.324C299.969 541.806 298.98 543.628 298.384 545.791C297.785 547.939 297.549 550.255 297.675 552.74C297.808 555.255 298.284 557.462 299.104 559.361C299.921 561.245 301.079 562.635 302.578 563.531C304.09 564.41 305.94 564.609 308.131 564.128ZM333.715 562.704L331.919 527.359L337.158 526.21L338.954 561.555L333.715 562.704ZM334.871 520.662C333.849 520.886 332.893 520.732 332 520.198C331.122 519.662 330.576 518.905 330.362 517.929C330.148 516.952 330.327 516.036 330.899 515.181C331.487 514.323 332.291 513.783 333.312 513.559C334.334 513.335 335.283 513.491 336.161 514.027C337.053 514.561 337.607 515.316 337.821 516.292C338.035 517.269 337.849 518.186 337.261 519.044C336.689 519.899 335.892 520.438 334.871 520.662ZM361.583 520.853L361.846 525.448L344.176 529.324L343.912 524.729L361.583 520.853ZM348.602 515.137L353.841 513.988L355.554 547.676C355.642 549.208 355.922 550.31 356.395 550.982C356.88 551.636 357.475 552.017 358.182 552.126C358.9 552.216 359.643 552.177 360.413 552.009C360.99 551.882 361.457 551.748 361.814 551.608C362.168 551.453 362.451 551.329 362.663 551.236L364.051 555.864C363.68 556.085 363.169 556.337 362.518 556.619C361.884 556.913 361.079 557.167 360.102 557.382C358.622 557.706 357.161 557.693 355.719 557.343C354.278 556.992 353.066 556.242 352.085 555.092C351.103 553.942 350.558 552.34 350.449 550.285L348.602 515.137ZM371.26 554.469L369.464 519.124L374.703 517.975L376.499 553.32L371.26 554.469ZM372.415 512.427C371.394 512.651 370.437 512.496 369.545 511.963C368.667 511.426 368.121 510.67 367.907 509.693C367.693 508.716 367.872 507.8 368.444 506.946C369.032 506.088 369.836 505.547 370.857 505.323C371.878 505.099 372.828 505.255 373.706 505.792C374.598 506.325 375.152 507.08 375.366 508.057C375.58 509.034 375.394 509.951 374.806 510.809C374.234 511.663 373.437 512.203 372.415 512.427ZM400.325 548.838C397.188 549.526 394.397 549.355 391.953 548.324C389.508 547.294 387.554 545.528 386.09 543.026C384.641 540.52 383.812 537.414 383.604 533.706C383.4 530.09 383.85 526.803 384.955 523.846C386.07 520.871 387.723 518.399 389.912 516.43C392.114 514.443 394.724 513.118 397.743 512.455C400.88 511.767 403.665 511.947 406.098 512.996C408.542 514.027 410.498 515.8 411.965 518.317C413.429 520.819 414.269 523.939 414.484 527.677C414.681 531.263 414.213 534.538 413.079 537.501C411.956 540.446 410.302 542.911 408.116 544.895C405.941 546.861 403.344 548.176 400.325 548.838ZM399.382 544.112C401.779 543.586 403.724 542.516 405.216 540.901C406.722 539.283 407.802 537.348 408.456 535.095C409.124 532.839 409.394 530.499 409.266 528.076C409.135 525.779 408.667 523.717 407.863 521.893C407.057 520.053 405.896 518.687 404.381 517.793C402.864 516.885 400.965 516.681 398.686 517.181C396.289 517.707 394.331 518.788 392.813 520.424C391.31 522.057 390.233 524.007 389.582 526.275C388.932 528.543 388.678 530.886 388.821 533.306C388.953 535.604 389.413 537.667 390.202 539.495C391.002 541.304 392.16 542.656 393.674 543.549C395.2 544.424 397.103 544.612 399.382 544.112ZM427.51 520.631L428.635 541.884L423.396 543.033L421.599 507.688L426.661 506.578L426.941 512.1L427.385 512.003C428.071 510.038 429.209 508.33 430.799 506.88C432.385 505.415 434.466 504.4 437.041 503.835C439.32 503.335 441.348 503.387 443.125 503.99C444.913 504.575 446.342 505.751 447.412 507.517C448.493 509.265 449.116 511.642 449.278 514.646L450.39 537.111L445.151 538.261L444.028 516.17C443.888 513.409 443.082 511.398 441.612 510.139C440.156 508.876 438.207 508.512 435.765 509.048C434.078 509.418 432.596 510.123 431.319 511.163C430.058 512.2 429.084 513.523 428.397 515.131C427.726 516.737 427.43 518.57 427.51 520.631Z" fill="#ECE8E5"/>
<path d="M46.3946 213.179L49.5953 212.456L50.5006 228.176C50.587 229.59 50.402 230.852 49.9458 231.96C49.4966 233.066 48.8129 233.988 47.8948 234.727C46.982 235.457 45.8675 235.971 44.5512 236.268C43.3249 236.545 42.2122 236.567 41.2131 236.333C40.2193 236.092 39.4172 235.603 38.807 234.867C38.2021 234.123 37.8587 233.133 37.7767 231.9L40.8943 231.196C40.9488 231.824 41.1181 232.332 41.4021 232.719C41.693 233.105 42.079 233.364 42.5602 233.496C43.0413 233.627 43.5867 233.624 44.1964 233.487C44.8892 233.33 45.4756 233.041 45.9557 232.62C46.4357 232.198 46.7918 231.663 47.0238 231.014C47.2558 230.364 47.3489 229.615 47.3029 228.766L46.3946 213.179ZM57.3377 233.076L53.9292 233.845L60.3172 210.036L64.0272 209.199L72.9568 229.55L69.5483 230.32L62.5096 213.604L62.3434 213.642L57.3377 233.076ZM57.4101 224.301L68.4672 221.805L68.6198 224.61L57.5628 227.106L57.4101 224.301ZM83.0136 227.28L76.0303 228.857L74.7594 206.776L81.774 205.193C83.8663 204.721 85.6933 204.767 87.2552 205.332C88.8154 205.89 90.0514 206.914 90.9631 208.405C91.8732 209.888 92.3938 211.791 92.5248 214.114C92.6587 216.384 92.3759 218.421 91.6762 220.225C90.982 222.019 89.905 223.522 88.4454 224.733C86.9858 225.943 85.1752 226.792 83.0136 227.28ZM79.0861 225.218L82.5154 224.444C84.1365 224.078 85.4683 223.446 86.5107 222.548C87.56 221.649 88.32 220.516 88.7908 219.15C89.2615 217.784 89.445 216.21 89.3412 214.428C89.2493 212.731 88.913 211.354 88.3325 210.298C87.7504 209.235 86.9261 208.519 85.8594 208.148C84.7912 207.77 83.4812 207.756 81.9293 208.107L78.1363 208.963L79.0861 225.218ZM97.8897 223.922L94.4812 224.692L100.869 200.883L104.579 200.045L113.509 220.397L110.1 221.166L103.062 204.45L102.895 204.488L97.8897 223.922ZM97.9621 215.147L109.019 212.651L109.172 215.456L98.1148 217.952L97.9621 215.147ZM114.943 197.706L121.921 214.348L122.16 214.294L127.028 194.978L130.499 194.194L124.111 218.003L120.401 218.841L111.472 198.489L114.943 197.706ZM134.844 215.581L133.573 193.501L141.159 191.788C142.808 191.416 144.192 191.42 145.312 191.801C146.439 192.18 147.303 192.848 147.905 193.804C148.513 194.759 148.858 195.915 148.939 197.273C149.013 198.632 148.807 199.916 148.323 201.125C147.844 202.325 147.078 203.365 146.024 204.244C144.968 205.115 143.619 205.736 141.977 206.107L136.75 207.287L136.582 204.463L141.508 203.352C142.554 203.115 143.394 202.737 144.026 202.215C144.663 201.686 145.115 201.059 145.382 200.337C145.647 199.607 145.752 198.83 145.697 198.005C145.645 197.165 145.449 196.459 145.109 195.888C144.768 195.309 144.259 194.911 143.584 194.692C142.915 194.472 142.051 194.481 140.991 194.72L136.959 195.63L138.055 214.856L134.844 215.581ZM165.92 186.199L169.142 185.472L169.984 199.993C170.078 201.537 169.808 202.985 169.173 204.337C168.538 205.682 167.605 206.839 166.375 207.808C165.143 208.771 163.679 209.443 161.981 209.826C160.277 210.211 158.773 210.208 157.469 209.818C156.163 209.421 155.125 208.709 154.355 207.682C153.589 206.646 153.163 205.355 153.076 203.809L152.234 189.288L155.445 188.563L156.27 202.815C156.335 203.813 156.601 204.652 157.068 205.333C157.542 206.012 158.18 206.487 158.984 206.757C159.793 207.018 160.738 207.027 161.819 206.783C162.899 206.539 163.818 206.11 164.575 205.495C165.337 204.871 165.904 204.125 166.275 203.254C166.654 202.383 166.81 201.448 166.745 200.451L165.92 186.199ZM175.081 206.498L173.81 184.418L181.396 182.705C183.045 182.333 184.429 182.319 185.548 182.664C186.672 183 187.535 183.628 188.136 184.548C188.742 185.46 189.086 186.598 189.169 187.963C189.241 189.315 189.031 190.564 188.54 191.709C188.055 192.852 187.283 193.834 186.224 194.656C185.169 195.469 183.818 196.062 182.169 196.434L176.422 197.731L176.276 194.859L181.732 193.628C182.778 193.391 183.618 193.045 184.25 192.59C184.883 192.134 185.332 191.577 185.599 190.92C185.872 190.261 185.982 189.519 185.926 188.694C185.875 187.854 185.68 187.167 185.341 186.632C185 186.09 184.493 185.731 183.82 185.555C183.145 185.372 182.281 185.4 181.228 185.638L177.196 186.548L178.292 205.773L175.081 206.498ZM185.01 194.166L190.846 202.94L187.188 203.765L181.445 194.97L185.01 194.166ZM214.188 175.303L217.41 174.576L218.252 189.097C218.346 190.642 218.076 192.09 217.442 193.441C216.806 194.786 215.873 195.943 214.643 196.913C213.411 197.875 211.947 198.548 210.249 198.931C208.545 199.316 207.041 199.313 205.737 198.923C204.431 198.526 203.393 197.814 202.623 196.786C201.857 195.751 201.431 194.46 201.344 192.914L200.502 178.393L203.713 177.668L204.538 191.92C204.603 192.917 204.869 193.756 205.336 194.437C205.81 195.117 206.448 195.592 207.252 195.862C208.061 196.123 209.006 196.132 210.087 195.888C211.167 195.644 212.086 195.215 212.843 194.6C213.605 193.976 214.172 193.229 214.543 192.359C214.922 191.487 215.078 190.553 215.013 189.555L214.188 175.303ZM239.256 169.645L240.527 191.725L237.576 192.391L225.832 178.638L225.645 178.68L226.56 194.878L223.349 195.603L222.078 173.522L225.05 172.852L236.809 186.623L237.006 186.579L236.076 170.363L239.256 169.645ZM247.152 167.863L248.422 189.943L245.211 190.668L243.94 168.588L247.152 167.863ZM253.688 166.387L260.666 183.029L260.905 182.975L265.774 163.659L269.245 162.876L262.857 186.685L259.147 187.522L250.217 167.171L253.688 166.387ZM273.589 184.262L272.318 162.182L285.661 159.17L285.828 162.038L275.696 164.325L276.079 171.053L285.515 168.923L285.679 171.78L276.243 173.91L276.633 180.67L286.89 178.355L287.057 181.222L273.589 184.262ZM291.222 180.282L289.951 158.202L297.537 156.489C299.186 156.117 300.57 156.103 301.689 156.448C302.813 156.784 303.675 157.412 304.276 158.332C304.883 159.244 305.227 160.382 305.309 161.747C305.382 163.099 305.172 164.348 304.68 165.493C304.196 166.636 303.424 167.618 302.364 168.44C301.31 169.253 299.958 169.846 298.31 170.218L292.563 171.515L292.417 168.643L297.873 167.412C298.919 167.175 299.758 166.829 300.391 166.374C301.023 165.918 301.473 165.361 301.739 164.704C302.013 164.045 302.122 163.303 302.067 162.479C302.016 161.638 301.82 160.951 301.481 160.416C301.14 159.874 300.633 159.515 299.96 159.339C299.286 159.156 298.422 159.184 297.369 159.422L293.337 160.332L294.433 179.557L291.222 180.282ZM301.15 167.95L306.986 176.724L303.328 177.549L297.586 168.754L301.15 167.95ZM320.84 157.236C320.611 156.189 320.09 155.465 319.28 155.066C318.475 154.665 317.464 154.602 316.244 154.877C315.372 155.074 314.623 155.388 314 155.82C313.382 156.244 312.912 156.743 312.591 157.318C312.274 157.885 312.136 158.48 312.175 159.105C312.199 159.631 312.343 160.057 312.606 160.384C312.876 160.709 313.212 160.957 313.615 161.128C314.023 161.291 314.457 161.407 314.917 161.478C315.375 161.542 315.814 161.582 316.232 161.596L318.349 161.686C319.031 161.707 319.737 161.785 320.466 161.919C321.195 162.052 321.879 162.291 322.517 162.635C323.155 162.979 323.684 163.464 324.102 164.09C324.52 164.717 324.757 165.526 324.813 166.518C324.878 167.77 324.631 168.951 324.073 170.06C323.515 171.169 322.667 172.136 321.528 172.961C320.389 173.786 318.988 174.386 317.325 174.761C315.732 175.121 314.334 175.171 313.132 174.91C311.938 174.649 310.982 174.111 310.267 173.296C309.55 172.475 309.12 171.407 308.976 170.093L312.208 169.363C312.305 170.15 312.589 170.759 313.058 171.192C313.532 171.617 314.123 171.88 314.831 171.982C315.537 172.078 316.302 172.033 317.126 171.846C318.041 171.64 318.843 171.31 319.534 170.855C320.224 170.394 320.757 169.851 321.133 169.227C321.507 168.597 321.672 167.922 321.626 167.205C321.595 166.549 321.388 166.053 321.007 165.717C320.632 165.38 320.127 165.144 319.493 165.01C318.865 164.875 318.165 164.79 317.393 164.753L314.837 164.609C313.104 164.512 311.717 164.108 310.676 163.397C309.634 162.685 309.064 161.562 308.964 160.026C308.896 158.753 309.167 157.567 309.778 156.468C310.389 155.369 311.247 154.429 312.352 153.648C313.456 152.86 314.721 152.305 316.148 151.983C317.589 151.657 318.873 151.637 320 151.921C321.128 152.206 322.035 152.743 322.724 153.535C323.412 154.326 323.816 155.327 323.937 156.537L320.84 157.236ZM330.942 148.949L332.213 171.029L329.002 171.754L327.731 149.674L330.942 148.949ZM334.735 150.998L334.569 148.13L351.04 144.412L351.207 147.28L344.566 148.779L345.67 167.992L342.469 168.714L341.365 149.501L334.735 150.998ZM353.038 143.961L356.685 143.138L362.839 151.917L363.078 151.863L368.033 140.577L371.681 139.753L364.737 154.907L365.23 163.576L362.03 164.299L361.526 155.632L353.038 143.961ZM383.728 159.401L382.457 137.321L395.801 134.309L395.967 137.176L385.835 139.463L386.218 146.192L395.654 144.062L395.818 146.919L386.383 149.049L386.773 155.809L397.029 153.493L397.196 156.361L383.728 159.401ZM409.804 140.912L409.967 143.714L400.521 145.847L400.358 143.044L409.804 140.912ZM431.7 133.479L428.521 134.197C428.35 133.507 428.084 132.926 427.723 132.454C427.36 131.976 426.927 131.604 426.423 131.339C425.924 131.066 425.373 130.899 424.77 130.839C424.167 130.778 423.539 130.821 422.888 130.968C421.634 131.251 420.528 131.836 419.571 132.722C418.613 133.608 417.884 134.748 417.383 136.143C416.882 137.537 416.684 139.144 416.789 140.962C416.89 142.731 417.247 144.153 417.862 145.231C418.476 146.308 419.27 147.05 420.243 147.456C421.221 147.854 422.302 147.92 423.487 147.652C424.18 147.496 424.835 147.253 425.452 146.925C426.075 146.588 426.63 146.175 427.117 145.686C427.604 145.198 428.006 144.644 428.326 144.026C428.65 143.4 428.861 142.719 428.957 141.984L432.178 141.256C432.07 142.388 431.798 143.461 431.365 144.476C430.932 145.491 430.357 146.415 429.642 147.246C428.927 148.077 428.096 148.782 427.149 149.36C426.202 149.937 425.156 150.355 424.013 150.613C422.136 151.037 420.435 150.952 418.91 150.357C417.39 149.753 416.155 148.685 415.205 147.152C414.261 145.617 413.717 143.658 413.572 141.273C413.448 138.95 413.742 136.866 414.455 135.024C415.173 133.172 416.211 131.646 417.571 130.443C418.936 129.232 420.522 128.423 422.331 128.014C423.474 127.756 424.556 127.683 425.579 127.794C426.6 127.899 427.524 128.185 428.351 128.654C429.183 129.114 429.887 129.749 430.462 130.558C431.037 131.361 431.449 132.334 431.7 133.479ZM436.426 147.506L435.155 125.425L448.498 122.414L448.665 125.281L438.533 127.568L438.916 134.297L448.352 132.167L448.516 135.024L439.08 137.154L439.47 143.913L449.727 141.598L449.894 144.466L436.426 147.506ZM454.058 143.526L452.787 121.445L455.999 120.72L457.103 139.933L466.746 137.756L466.913 140.624L454.058 143.526ZM470.576 139.797L469.305 117.717L472.517 116.992L473.621 136.205L483.264 134.028L483.431 136.895L470.576 139.797Z" fill="#ECE8E5"/>
<path d="M708.657 637.852C702.12 636.964 695.599 642.687 693.156 645.66L694.173 639.067C694.988 633.793 688.444 632.292 685.071 632.201C681.509 638.962 666.131 635.585 658.888 633.051L696.396 628.11L685.07 599.5L688 599.5L701.595 628.571L698.44 631.079L708.657 637.852Z" fill="#ECE8E5" stroke="#ECE8E5" stroke-opacity="0.91"/>
<path d="M745.62 655.843L742.37 654.545" stroke="#F71313" stroke-opacity="0.91"/>
<path d="M633 692L632 678L662 672C701.6 694 729.167 668.5 738 653L746 656C726 700.8 681.667 694.667 662 686L633 692Z" fill="#FCBF49" stroke="#FCBF49"/>
<path d="M643.451 640.722L648.951 598.722L644.451 598.722L638.951 640.722L624.951 647.722L632.951 691.222L629.451 649.722L646.451 642.222L643.451 640.722Z" fill="#ECE8E5" stroke="#ECE8E5" stroke-opacity="0.937255"/>
<path d="M742.5 653.979C741.701 645.992 720.236 646.311 709.552 647.473C736.711 633.517 745.001 646.818 746 655.479L742.5 653.979Z" fill="#ECE8E5"/>
<path d="M709.5 647.479C720.167 646.312 741.7 645.979 742.5 653.979L746 655.479C745 646.812 736.7 633.5 709.5 647.5" stroke="#ECE8E5"/>
<path d="M569.306 654.557C567.242 648.291 559.242 644.934 555.5 644.039L561.873 642.067C566.971 640.49 565.455 633.95 564.06 630.877C556.422 630.635 552.725 615.331 551.832 607.71L572.697 639.268L600 607L603 607L574.559 644.144L570.922 642.406L569.306 654.557Z" fill="#ECE8E5" stroke="#ECE8E5" stroke-opacity="0.91"/>
<path d="M569.314 695.666L569.058 692.176" stroke="#F71313" stroke-opacity="0.91"/>
<path d="M487.499 610.244L499.648 603.215L518.177 627.56C515.736 672.795 550.731 686.415 568.534 687.57L569.34 696.076C520.305 697.709 506.409 655.166 505.591 633.69L487.499 610.244Z" fill="#FCBF49" stroke="#FCBF49"/>
<path d="M538.177 597.189L578.345 583.745L576.375 579.7L536.207 593.143L523.784 583.621L488.177 609.859L523.956 588.543L538.142 600.543L538.177 597.189Z" fill="#ECE8E5" stroke="#ECE8E5" stroke-opacity="0.91"/>
<path d="M569.624 692.044C576.466 687.823 566.969 667.94 561.25 658.861C585.746 677.186 577.162 691.154 569.808 695.848L569.624 692.044Z" fill="#ECE8E5" stroke="#ECE8E5"/>
<path d="M43.5 260.5V253.5L886 52V59L43.5 260.5Z" fill="#FCBF49" stroke="#FCBF49"/>
<path d="M43.5 271V264L886 63V69.5L43.5 271Z" fill="#FCBF49" stroke="#FCBF49"/>
<path d="M43 282.5V275.5L886 74V81.5L43 282.5Z" fill="#FCBF49" stroke="#FCBF49"/>
<path d="M43 293.5V287L885.5 87V93.5L43 293.5Z" fill="#FCBF49" stroke="#FCBF49"/>
<path d="M43 305V298.5L225.5 254V260.5L43 305Z" fill="#FCBF49" stroke="#FCBF49"/>
<path d="M43 328.5V321.5L69 315V322L43 328.5Z" fill="#FCBF49" stroke="#FCBF49"/>
<path d="M43 316.5V308.5L106.5 293V300.5L43 316.5Z" fill="#FCBF49" stroke="#FCBF49"/>
<path d="M656.5 390.5H635L618.5 472.5H640L656.5 390.5Z" fill="#101720" fill-opacity="0.91" stroke="black"/>
<path d="M608 390.5H586L569.5 472.5H591.5L608 390.5Z" fill="#101720" stroke="black"/>
<path d="M832 231.5L850.5 205V227.5L832 231.5Z" fill="#101720" stroke="black"/>
<circle cx="748.5" cy="480.5" r="10" fill="#ECE8E5" stroke="#ECE8E5"/>
<circle cx="794.5" cy="480.5" r="10" fill="#ECE8E5" stroke="#ECE8E5"/>
<circle cx="840.5" cy="480.5" r="10" fill="#ECE8E5" stroke="#ECE8E5"/>
</svg>
